<?xml version="1.0" standalone="no"?>
<!DOCTYPE svg PUBLIC "-//W3C//DTD SVG 20010904//EN"
 "http://www.w3.org/TR/2001/REC-SVG-20010904/DTD/svg10.dtd">
<svg version="1.0" xmlns="http://www.w3.org/2000/svg"
 width="1000.000000pt" height="1000.000000pt" viewBox="0 0 1000.000000 1000.000000"
 preserveAspectRatio="xMidYMid meet">

<g transform="translate(0.000000,1000.000000) scale(0.100000,-0.100000)"
fill="#000000" stroke="none">
<path d="M2000 5000 l0 -790 790 0 790 0 0 790 0 790 -790 0 -790 0 0 -790z
m1450 0 l0 -660 -660 0 -660 0 0 660 0 660 660 0 660 0 0 -660z"/>
<path d="M2187 5603 c-4 -3 -7 -278 -7 -610 l0 -603 610 0 610 0 0 610 0 610
-603 0 c-332 0 -607 -3 -610 -7z m500 -119 c50 -38 63 -78 63 -197 0 -118 -11
-156 -55 -197 -23 -22 -36 -25 -95 -25 -59 0 -72 3 -95 25 -44 40 -55 79 -55
195 0 121 18 171 73 206 41 26 125 22 164 -7z m493 -199 l0 -215 -60 0 -60 0
0 215 0 215 60 0 60 0 0 -215z m-30 -413 c59 -29 80 -85 80 -212 0 -120 -14
-159 -71 -198 -28 -20 -44 -23 -92 -20 -46 4 -63 10 -87 33 -42 41 -52 84 -48
210 3 97 6 114 27 144 42 59 123 77 191 43z m-530 -207 l0 -215 -60 0 -60 0 0
215 0 215 60 0 60 0 0 -215z"/>
<path d="M2576 5375 c-9 -25 -7 -168 3 -183 5 -8 17 -12 27 -10 17 3 19 13 19
103 0 94 -1 100 -21 103 -13 2 -24 -4 -28 -13z"/>
<path d="M3055 4757 c-3 -7 -5 -54 -3 -103 3 -88 3 -89 28 -89 l25 0 0 100 c0
96 -1 100 -23 103 -12 2 -24 -3 -27 -11z"/>
<path d="M4661 5776 c-48 -26 -64 -91 -37 -145 31 -58 128 -71 177 -22 24 24
29 38 29 76 0 40 -5 52 -31 76 -24 23 -40 29 -73 29 -22 -1 -52 -7 -65 -14z"/>
<path d="M3750 5321 l0 -421 125 0 125 0 0 310 0 310 38 0 c51 0 75 -18 70
-55 -2 -24 -10 -32 -35 -40 l-33 -9 0 -108 0 -108 36 0 c48 0 74 -16 74 -45 0
-29 -26 -45 -74 -45 l-36 0 0 -106 0 -106 89 4 c80 3 94 6 133 33 67 48 98
102 105 184 5 59 2 76 -20 124 -18 39 -37 64 -65 82 -26 17 -39 32 -35 41 3 8
9 14 14 14 4 0 21 21 36 48 23 39 28 58 27 112 0 83 -33 137 -102 172 -44 21
-61 23 -259 26 l-213 3 0 -420z"/>
<path d="M5315 5518 c-63 -22 -139 -93 -168 -158 -18 -39 -21 -72 -25 -252
l-5 -208 117 0 116 0 0 188 c0 170 2 191 18 205 10 10 25 17 33 17 35 0 39
-21 39 -217 l0 -193 115 0 115 0 0 188 c0 198 -10 262 -49 326 -25 39 -76 81
-126 102 -39 16 -136 17 -180 2z"/>
<path d="M6160 5517 c-19 -8 -46 -19 -60 -25 -42 -17 -117 -99 -147 -159 -97
-198 59 -443 282 -443 l65 0 0 115 0 115 -24 -6 c-33 -8 -94 13 -106 36 -42
78 40 175 116 138 48 -22 54 -48 54 -225 l0 -163 115 0 115 0 0 163 c0 89 -5
190 -10 225 -16 99 -67 166 -160 213 -56 28 -186 37 -240 16z"/>
<path d="M7045 5523 c-11 -3 -43 -20 -72 -39 -38 -24 -60 -48 -80 -86 -28 -53
-28 -55 -31 -275 l-4 -223 110 0 110 0 4 175 c3 196 7 207 74 209 l36 2 -1
114 c-2 76 -6 117 -14 122 -13 8 -100 9 -132 1z"/>
<path d="M4610 5205 l0 -305 110 0 110 0 0 305 0 305 -110 0 -110 0 0 -305z"/>
<path d="M7407 5503 c-3 -5 -4 -107 -3 -228 1 -236 1 -234 59 -309 50 -64 135
-84 214 -51 20 8 39 13 42 10 3 -4 -5 -26 -18 -50 -31 -58 -89 -83 -156 -68
-25 6 -47 8 -50 5 -8 -8 -6 -166 3 -179 21 -32 153 -45 222 -20 95 33 187 126
220 222 18 53 20 85 20 367 l0 309 -117 -3 -118 -3 -1 -40 c-1 -22 -2 -106 -3
-187 l-1 -148 -25 -6 c-18 -4 -32 -1 -45 11 -18 17 -20 32 -20 197 l0 178
-109 0 c-61 0 -112 -3 -114 -7z"/>
<path d="M6586 4634 c-9 -8 -16 -19 -16 -24 0 -11 29 -40 40 -40 11 0 40 29
40 40 0 11 -29 40 -40 40 -5 0 -16 -7 -24 -16z"/>
<path d="M3790 4425 l0 -215 34 0 34 0 4 193 c4 242 5 237 -38 237 l-34 0 0
-215z"/>
<path d="M6328 4633 c-14 -3 -18 -15 -18 -49 0 -37 -3 -44 -20 -44 -16 0 -20
-7 -20 -30 0 -23 4 -30 20 -30 18 0 20 -7 20 -86 0 -102 16 -143 65 -170 34
-18 35 -18 49 1 21 27 20 28 -14 53 -29 22 -30 24 -30 112 0 89 0 90 25 90 21
0 25 5 25 30 0 25 -4 30 -25 30 -23 0 -25 3 -25 50 0 52 -4 56 -52 43z"/>
<path d="M4155 4530 c-47 -24 -45 -24 -45 -4 0 11 -8 14 -32 12 l-33 -3 0
-160 0 -160 33 -3 32 -3 0 111 c0 104 1 112 25 135 15 16 36 25 55 25 19 0 40
-9 55 -25 24 -23 25 -31 25 -135 l0 -110 36 0 36 0 -4 124 c-4 136 -13 161
-71 196 -40 25 -63 25 -112 0z"/>
<path d="M4612 4531 c-39 -25 -42 -25 -42 -5 0 11 -8 14 -32 12 l-33 -3 -3
-129 c-2 -70 -1 -143 3 -162 5 -30 10 -34 35 -34 l30 0 0 110 c0 104 1 112 25
135 16 17 35 25 57 25 65 0 78 -28 78 -164 l0 -106 36 0 36 0 -3 130 -4 130
-36 36 c-46 46 -99 55 -147 25z"/>
<path d="M5062 4543 c-12 -2 -40 -21 -61 -41 -119 -113 -44 -298 119 -296 69
1 113 23 147 76 50 75 32 177 -41 233 -35 27 -111 40 -164 28z m130 -90 c33
-36 40 -58 32 -99 -10 -53 -48 -84 -103 -84 -100 0 -146 113 -74 184 38 38
109 37 145 -1z"/>
<path d="M5895 4533 c-16 -8 -39 -23 -49 -32 -27 -23 -56 -90 -56 -130 0 -50
46 -127 89 -148 45 -22 120 -22 151 0 30 21 40 21 40 2 0 -10 10 -15 30 -15
l30 0 0 165 0 165 -30 0 c-20 0 -30 -5 -30 -15 0 -19 -3 -19 -42 5 -39 24 -92
25 -133 3z m127 -65 c84 -69 49 -197 -55 -198 -70 0 -116 55 -103 124 10 54
47 86 99 86 24 0 50 -6 59 -12z"/>
<path d="M6905 4538 c-103 -36 -147 -164 -88 -255 32 -50 89 -78 155 -77 61 1
109 27 142 78 88 136 -53 308 -209 254z m136 -87 c65 -66 20 -181 -71 -181
-52 0 -76 13 -95 50 -19 37 -19 73 0 110 20 38 41 49 93 50 35 0 49 -6 73 -29z"/>
<path d="M7395 4530 c-47 -24 -45 -24 -45 -5 0 10 -10 15 -30 15 l-30 0 0
-165 0 -165 30 0 30 0 0 94 c0 138 19 176 87 176 59 0 67 -16 73 -147 l5 -118
33 -3 32 -3 0 118 c0 136 -13 174 -71 205 -43 23 -65 23 -114 -2z"/>
<path d="M7799 4534 c-26 -11 -42 -27 -54 -53 -16 -36 -16 -41 -1 -73 17 -36
37 -45 126 -63 43 -9 60 -22 60 -46 0 -41 -81 -52 -137 -18 -32 20 -35 20 -53
4 -25 -23 -17 -39 32 -61 84 -38 181 -16 214 47 33 64 2 112 -84 129 -80 16
-102 27 -102 48 0 42 63 56 119 27 26 -13 30 -13 47 6 18 20 18 21 -1 35 -22
16 -81 34 -110 33 -11 0 -36 -7 -56 -15z"/>
<path d="M5400 4536 c0 -3 15 -38 66 -152 61 -137 75 -166 81 -160 6 6 143
307 143 314 0 2 -17 2 -37 0 -37 -3 -38 -4 -68 -87 -17 -47 -36 -86 -41 -88
-5 -1 -17 22 -27 52 -38 117 -44 125 -82 125 -19 0 -35 -2 -35 -4z"/>
<path d="M6580 4375 l0 -165 30 0 30 0 0 165 0 165 -30 0 -30 0 0 -165z"/>
</g>
</svg>
